<svg width="1384" height="454" viewBox="0 0 1384 454" fill="none" xmlns="http://www.w3.org/2000/svg">
<path d="M1384 454H704.555V335.728H675.727V454H664.461L622.074 388.957L664.355 335.728H630.402L590.975 386.162H589.402V335.728H560.574V454H509.755C510.814 453.666 511.85 453.301 512.862 452.903C519.229 450.419 524.626 447.08 529.052 442.887C533.478 438.655 536.953 433.976 539.477 428.851C542.039 423.726 543.573 418.523 544.078 413.243L514.958 413.068C514.453 415.941 513.542 418.523 512.222 420.813C510.94 423.065 509.289 424.987 507.271 426.579C505.29 428.132 502.981 429.317 500.341 430.132C497.74 430.947 494.847 431.355 491.663 431.355C485.995 431.355 481.083 430.016 476.929 427.337C472.813 424.619 469.61 420.6 467.319 415.281C465.067 409.923 463.941 403.284 463.941 395.363C463.941 387.754 465.048 381.27 467.261 375.912C469.513 370.554 472.716 366.458 476.87 363.624C481.063 360.79 486.053 359.372 491.838 359.372C495.099 359.372 498.069 359.838 500.748 360.77C503.466 361.663 505.815 362.964 507.795 364.672C509.775 366.38 511.367 368.438 512.57 370.845C513.774 373.252 514.57 375.951 514.958 378.94H544.078C543.379 371.796 541.573 365.449 538.661 359.896C535.749 354.344 531.964 349.665 527.305 345.86C522.646 342.017 517.249 339.105 511.114 337.125C504.98 335.106 498.302 334.097 491.081 334.097C480.482 334.097 470.911 336.465 462.369 341.202C453.827 345.939 447.052 352.869 442.044 361.993C437.036 371.117 434.531 382.24 434.531 395.363C434.531 408.447 436.996 419.552 441.927 428.676C446.858 437.8 453.575 444.75 462.078 449.525C465.424 451.381 468.943 452.871 472.634 454H386.171C388.799 453.229 391.306 452.282 393.691 451.156C401.262 447.545 407.164 442.459 411.396 435.897C415.627 429.297 417.743 421.551 417.743 412.66V335.728H388.974V410.156C388.974 414.272 388.061 417.941 386.236 421.163C384.412 424.386 381.869 426.91 378.607 428.734C375.385 430.559 371.618 431.472 367.309 431.472C362.999 431.472 359.213 430.559 355.952 428.734C352.691 426.91 350.148 424.386 348.323 421.163C346.537 417.941 345.645 414.272 345.645 410.156V335.728H316.816V412.66C316.816 421.551 318.912 429.297 323.105 435.897C327.299 442.459 333.181 447.545 340.752 451.156C343.137 452.282 345.65 453.229 348.29 454H304.536L280.356 409.623C286.926 406.597 292.003 402.233 295.588 396.528C299.199 390.743 301.004 383.716 301.004 375.446C301.004 367.293 299.237 360.246 295.704 354.306C292.171 348.327 287.144 343.745 280.621 340.562C274.137 337.339 266.43 335.728 257.5 335.728H208.23V454H190.176V431.588H135.84V407.069H185.925V383.6H135.84V359.14H190.176V335.728H107.012V454H28.8555V417.96H48.4229C57.5469 417.96 65.4292 416.271 72.0684 412.894C78.7075 409.516 83.8128 404.759 87.3848 398.625C90.9955 392.452 92.8008 385.25 92.8008 377.019C92.8008 368.826 91.0341 361.643 87.501 355.47C83.9679 349.258 78.9404 344.424 72.418 340.969C65.9341 337.474 58.2268 335.728 49.2969 335.728H0.0273438V454H0V0H1384V454ZM273.098 454H237.059V414.175H251.824L273.098 454ZM630.001 454H589.402V422.678L600.934 408.118L630.001 454ZM43.0654 358.965C47.3751 358.965 51.0053 359.702 53.9561 361.178C56.9067 362.653 59.1391 364.75 60.6533 367.468C62.1674 370.147 62.9248 373.33 62.9248 377.019C62.9248 380.668 62.1675 383.871 60.6533 386.628C59.1391 389.346 56.9067 391.461 53.9561 392.976C51.0441 394.49 47.4139 395.247 43.0654 395.247H28.8555V358.965H43.0654ZM251.269 358.965C255.578 358.965 259.208 359.586 262.159 360.828C265.11 362.032 267.342 363.857 268.856 366.303C270.371 368.71 271.128 371.758 271.128 375.446C271.128 379.135 270.371 382.163 268.856 384.531C267.342 386.861 265.11 388.608 262.159 389.772C259.247 390.898 255.617 391.462 251.269 391.462H237.059V358.965H251.269ZM603.219 189.097C592.503 189.097 582.855 191.465 574.274 196.202C565.694 200.939 558.88 207.869 553.833 216.993C548.825 226.117 546.32 237.24 546.32 250.363C546.32 263.447 548.825 274.552 553.833 283.676C558.88 292.761 565.694 299.692 574.274 304.468C582.855 309.243 592.503 311.631 603.219 311.631C613.896 311.631 623.525 309.262 632.105 304.525C640.725 299.789 647.558 292.858 652.605 283.734C657.653 274.61 660.177 263.486 660.177 250.363C660.177 237.24 657.653 226.117 652.605 216.993C647.558 207.869 640.725 200.939 632.105 196.202C623.525 191.465 613.896 189.097 603.219 189.097ZM1024.95 190.728V273.193C1024.92 276.649 1024.39 279.542 1023.38 281.871C1022.41 284.201 1020.97 285.967 1019.07 287.171C1017.17 288.336 1014.84 288.918 1012.08 288.918C1009.44 288.918 1007.17 288.374 1005.27 287.287C1003.37 286.2 1001.87 284.589 1000.79 282.453C999.737 280.279 999.155 277.658 999.038 274.591H970.326C970.287 283.132 972.054 290.141 975.626 295.615C979.237 301.09 984.071 305.127 990.128 307.729C996.223 310.33 1003 311.631 1010.45 311.631C1018.88 311.631 1026.29 310.039 1032.7 306.855C1039.15 303.672 1044.19 299.206 1047.84 293.46C1051.49 287.675 1053.34 280.92 1053.38 273.193V190.728H1024.95ZM0.0273438 190.728V310H53.5479C62.3612 310 69.855 308.564 76.0283 305.69C82.2016 302.778 86.9193 298.818 90.1807 293.81C93.4419 288.762 95.0723 283.035 95.0723 276.629C95.0722 270.883 93.8295 265.913 91.3447 261.72C88.8599 257.488 85.5597 254.188 81.4443 251.819C77.3678 249.451 72.9225 248.151 68.1084 247.918V246.753C72.4955 245.821 76.3584 244.19 79.6973 241.86C83.0362 239.531 85.6571 236.6 87.5596 233.066C89.4619 229.494 90.4131 225.437 90.4131 220.895C90.413 214.916 88.8796 209.655 85.8125 205.112C82.7841 200.57 78.2414 197.036 72.1846 194.513C66.1666 191.989 58.6926 190.728 49.7627 190.728H0.0273438ZM143.993 190.728L103.75 310H134.733L142.58 284.957H183.77L191.632 310H222.615L182.372 190.728H143.993ZM235.457 190.728V310H264.285V269.175H279.051L300.858 310H332.308L307.583 264.623C314.152 261.597 319.23 257.233 322.814 251.528C326.425 245.743 328.23 238.716 328.23 230.446C328.23 222.293 326.464 215.246 322.931 209.306C319.398 203.327 314.37 198.745 307.848 195.562C301.364 192.339 293.656 190.728 284.727 190.728H235.457ZM340.141 190.728V214.14H376.365V310H404.785V214.14H440.952V190.728H340.141ZM461.729 190.728V243.52L447.984 247.219V261.953L461.729 258.311V310H540.234V286.588H490.557V250.67L504.242 247.044V232.077L490.557 235.76V190.728H461.729ZM677.008 190.728V310H705.078V236.328H706.068L734.722 309.243H752.659L781.312 236.735H782.303V310H810.374V190.728H774.674L744.39 264.574H742.992L712.708 190.728H677.008ZM828.355 190.728V310H857.184V190.728H828.355ZM875.281 190.728V310H958.445V286.588H904.109V262.069H954.194V238.6H904.109V214.14H958.445V190.728H875.281ZM47.2002 258.343C50.8886 258.343 54.0532 258.964 56.6934 260.206C59.3334 261.41 61.3721 263.138 62.8086 265.39C64.2449 267.603 64.9629 270.243 64.9629 273.31C64.9629 277.542 63.4681 280.842 60.4785 283.21C57.5278 285.578 52.9267 286.763 46.6758 286.763H28.8555V258.343H47.2002ZM603.219 214.372C608.965 214.372 613.876 215.75 617.953 218.507C622.069 221.263 625.213 225.321 627.388 230.679C629.601 236.037 630.708 242.598 630.708 250.363C630.708 258.128 629.601 264.69 627.388 270.048C625.213 275.406 622.069 279.463 617.953 282.22C613.876 284.976 608.965 286.355 603.219 286.355C597.512 286.355 592.6 284.976 588.484 282.22C584.369 279.463 581.205 275.406 578.992 270.048C576.818 264.69 575.73 258.128 575.73 250.363C575.731 242.598 576.818 236.037 578.992 230.679C581.205 225.321 584.369 221.263 588.484 218.507C592.6 215.75 597.512 214.372 603.219 214.372ZM163.619 220.778L176.895 263.06H149.44L162.688 220.778H163.619ZM278.495 213.965C282.805 213.965 286.435 214.586 289.386 215.828C292.336 217.032 294.569 218.857 296.083 221.303C297.597 223.71 298.354 226.758 298.354 230.446C298.354 234.135 297.597 237.163 296.083 239.531C294.569 241.861 292.336 243.608 289.386 244.772C286.474 245.898 282.844 246.462 278.495 246.462H264.285V213.965H278.495ZM45.2783 213.615C50.0925 213.615 53.9167 214.76 56.751 217.051C59.5852 219.341 61.0028 222.487 61.0029 226.485C61.0029 229.281 60.304 231.669 58.9062 233.649C57.5474 235.629 55.645 237.143 53.1992 238.191C50.7532 239.24 47.9574 239.765 44.8125 239.765H28.8555V213.615H45.2783Z" fill="#EAEAEA"/>
</svg>
